<?xml version="1.0" standalone="no"?>
<!DOCTYPE svg PUBLIC "-//W3C//DTD SVG 1.1//EN" "http://www.w3.org/Graphics/SVG/1.1/DTD/svg11.dtd" >
<svg xmlns="http://www.w3.org/2000/svg">
<metadata>Generated by IcoMoon</metadata>
<defs>
<font id="calendare-icons" horiz-adv-x="1024">
<font-face units-per-em="1024" ascent="960" descent="-64" />
<missing-glyph horiz-adv-x="1024" />
<glyph unicode="&#x20;" horiz-adv-x="512" d="" />
<glyph unicode="&#xe900;" glyph-name="arrow-top" d="M487 961c16.666 0 33.334 0 50 0 28.942-5.801 54.942-18.134 78-37 58.334-58.333 116.666-116.667 175-175 18.424-26.382 19.758-53.714 4-82-19.932-23.904-44.932-31.57-75-23-8.592 3.63-16.592 8.296-24 14-39 39-78 78-117 117 0.752-261.332 0.752-522.664 0-784-5.392-27.052-21.058-45.052-47-54-11.334 0-22.666 0-34 0-24.118 8.46-39.786 25.126-47 50-0.55 262.672-1.882 525.338-4 788-39.666-39.666-79.334-79.334-119-119-17.512-12.154-36.846-16.154-58-12-39.42 15.164-54.42 43.498-45 85 2.666 5.334 5.334 10.666 8 16 61.666 61.667 123.334 123.333 185 185 21.33 15.207 44.662 25.54 70 31z" />
<glyph unicode="&#xe901;" glyph-name="follow" d="M225.2 957.8c-58.2-8.6-113.6-43.8-146.2-92.6-20.2-30.6-31.2-61.6-35-98.8-1.6-14.8-2-128-1.6-368.4 0.6-327.8 1-347.6 4.4-359 10.2-34 35-64 65.2-78.6 22.2-10.8 36.8-14.4 59-14.4 27.6 0 55.6 9 75.6 24.4 4.6 3.4 66.2 64 137 134.4l128.4 128.2 128.6-128.2c70.6-70.4 132.2-131 136.8-134.6 10.8-8.2 34.8-19.2 48.2-22 13-2.8 42.4-2.8 54.4-0.2 36.8 8.2 71.2 34.4 86.8 66.4 15.4 30.8 14-3.2 14.8 383.6 0.4 240.4 0 353.6-1.6 368.4-9 90.2-71 162.8-159 187l-20 5.6-282 0.2c-155 0.2-287.4-0.4-293.8-1.4z" />
<glyph unicode="&#xe902;" glyph-name="follow-fill" d="M245 961c-16.656-3.333-33.324-7.667-50-13-88.491-36.497-139.491-102.164-153-197-1.333-228-1.333-456 0-684 14.737-75.076 59.737-118.408 135-130 9.333 0 18.667 0 28 0 32.93 4.652 62.264 17.652 88 39 72.334 76.334 144.666 152.666 217 229 74.938-79.606 150.604-158.606 227-237 20.59-15.302 43.258-25.636 68-31 17.334 0 34.666 0 52 0 7.706 2.448 15.706 4.782 24 7 56.684 22.010 89.684 63.010 99 123 1.334 228 1.334 456 0 684-1.382 14.243-4.048 28.243-8 42-32.12 94.471-97.12 150.471-195 168-177.334 0-354.666 0-532 0zM275 833c157.334 0.333 314.668 0 472-1 56.888-4.892 91.222-35.226 103-91 1.334-220.666 1.334-441.334 0-662-7.562-13.31-17.896-16.31-31-9-90 94-180 188-270 282-27.834 17.814-55.168 17.146-82-2-87.936-93.938-176.602-187.272-266-280-13.142-5.598-22.809-1.932-29 11-1.333 220-1.333 440 0 660 12.099 55.774 46.432 86.441 103 92z" />
<glyph unicode="&#xe903;" glyph-name="drop-down" d="M257 572.2c-9.4-4.4-19.8-14.8-22.8-22.8-3.6-9.2-2.6-26.6 1.6-35 2.2-4.2 59.6-63 129.6-132.6 131.6-131.2 130.2-129.8 146.6-129.8s15-1.4 146.6 129.8c70 69.6 127.4 128.4 129.6 132.6 4.2 8.4 5.2 25.8 1.6 35-3 8-13.4 18.4-22.8 22.8-7.6 3.6-18.6 3.8-255 3.8s-247.4-0.2-255-3.8z" />
<glyph unicode="&#xe904;" glyph-name="skip" d="M474 958.6c-93.6-8.8-172.4-36-244-83.8-76.8-51.4-136.6-119.4-177-201.8-33.6-68-49.6-132.2-52.4-208-3-85.2 14.6-166.4 52.6-242.8 26.6-53.8 54.2-91.8 97.6-135.4 44.2-44 82.4-71.4 136.2-97.8 37.6-18.4 61.8-27.4 100-37 100-25.2 200.4-20.4 298 14.2 29.8 10.6 81.4 36.4 108 54.2 59.8 39.8 114.6 96 153.8 157.6 14.4 22.6 37.6 70.6 47 97.2 47 132.4 38.8 274.4-23 398.6-24.8 50-52.6 89.4-91.6 129.6-43.2 44.8-85.6 75.6-142.2 103.6-59.2 29.2-114.4 45-180 51-20.4 1.8-66.6 2.2-83 0.6zM550 830c47.4-5 87.8-16.6 131-38 77.4-38.2 135.6-96 173.8-173 26.2-52.6 38-97.6 40.6-155 4.8-106-36.2-210.8-112.2-287.2-125.8-126-322-148.8-473.4-54.8-51 31.6-98.8 80.4-128 130.4-89.2 152.8-65.2 342.8 59 466.8 81.8 81.4 196.2 122.4 309.2 110.8zM369 638.2c-18.4-4.8-34.6-18-43-35.2-4-8.2-5-13-5-27 0-26.2 2.2-29.4 54.8-82.4l45-45.6-45-45.6c-49.2-49.6-53.6-55.6-55.4-77.6-2-25.2 10.6-48 33.6-60.6 12-6.6 14.2-7.2 30-7.2 26.2 0.2 30.6 3.2 83.6 55.6l44.4 44.2 44.6-44.2c52.8-52.4 57.2-55.4 83.4-55.6 15.8 0 18 0.6 30 7.2 23 12.6 35.6 35.4 33.6 60.6-1.8 22-6.2 28-55.4 77.8l-45 45.4 44.2 44.6c52.4 52.8 55.4 57.2 55.4 83.4 0 14.4-0.8 18.6-5.2 27.2-8 15-14 21.4-28 29-11.6 6.2-14 6.8-29.6 6.6-26.4 0-29.4-2-82.6-54.6l-45.4-45-44.6 44.2c-50 49.6-56.6 54.4-79 55.6-7.4 0.4-16 0.2-19.4-0.8z" />
<glyph unicode="&#xe905;" glyph-name="message" d="M142.4 957.8c-35-5.8-64-21.4-91.4-48.8-28.2-28.2-43-56.2-48.8-93-1.4-8.6-2.2-103.8-2.2-284 0-260.6 0.2-271.8 4-289.8 8.4-41.4 35.6-82.2 70.6-106 13.6-9.2 36.8-19.6 55-24.6 14-3.8 21.8-4.4 90.6-5.2l75.4-0.8 95.6-81c54.6-46.2 99.6-82.8 104.6-85 10.2-4.6 25.6-4.2 35.4 1.2 3.2 1.6 49 39.4 101.6 83.8l95.8 81 75.2 0.8c84 1 91 2 122 16.6 37.2 17.8 64.4 45.4 82.2 83.6 16.2 35 15 9.6 15 327.4v283l-4.4 15.4c-9.2 31.6-23.2 55.6-45 77.2-22.6 22.2-44 35-75.8 44.8l-14.8 4.6-365 0.2c-207.6 0.2-369.6-0.4-375.6-1.4zM534.6 740c4.2-2.8 10-8.6 13-12.8 4.8-7 5.4-9.8 5.4-23.2s-0.6-16.2-5.4-23.2c-3-4.2-8.8-10-13-12.8l-7.4-5-119.6-0.6c-114.8-0.4-119.8-0.4-127 3.4-32.8 16.8-32.4 59.4 0.4 77 5.4 2.8 19.6 3 126.2 2.6l120-0.4 7.4-5zM738.8 573.6c11.4-3.4 23.8-16.4 27-28.2 5.4-19-2.6-39-19.4-48.8l-9.4-5.6h-450l-9.4 5.6c-16.8 9.8-24.8 30-19.6 49 2.8 10.6 16.6 25.4 26.4 28.2 10.6 3 444 2.8 454.4-0.2zM746.4 399.4c16.8-9.8 24.8-29.8 19.4-48.8-3.2-11.8-15.6-24.8-27-28.2-12-3.6-441.6-3.6-453.6 0-16.4 5-29.2 23-29.2 41.8 0 16.6 15.6 35.8 32.4 39.8 3.6 1 106 1.4 227.6 1.4l221-0.4 9.4-5.6z" />
<glyph unicode="&#xe906;" glyph-name="message-2" d="M197.6 956.8c-101.8-15.8-182.8-100-195.6-202.8-1.6-13.8-2-78-1.4-233 0.6-192.4 1-215.4 4-227.6 12.6-51.2 30.6-83 66.4-118.4 50.8-50.2 101.6-68.8 188.4-69l29.6-0.2 77-65.2c42.4-35.8 82.2-68.6 88.6-72.8 22-14.4 49.2-20.2 75-15.8 26.8 4.4 34.8 9.8 124.8 84.4l83.6 69 40.4 1.2c52.6 1.6 76.4 6.4 110.6 22.6 25 11.8 45 26.2 67 48.6 37.6 38.6 58.4 80.4 66 133.2 1.2 8.6 2 94.8 2 222 0 173.4-0.6 211.2-3 227.6-15.2 101-95.6 181.2-197 196.6-27.4 4-599.8 3.8-626.4-0.4zM813.8 829c29.6-7 57.6-29.6 70.8-57 3.8-8.2 8.2-20.4 9.4-27 1.6-8.6 2-71.2 1.6-219l-0.6-207-5-13c-11.2-28.6-28-46.8-54.8-60-20.8-10.2-33-12-87.6-12-38.4 0-44.6-0.4-54-4-8.2-3-29.6-19.6-95.4-74-46.6-38.4-85.2-70-86-70-0.6 0-38 31-83.2 69-45 38-86 71-91 73.6-8.4 4.2-12.4 4.4-66 5.6-62 1.2-64.8 1.8-88.6 14.4-22.6 11.8-39 31-49.4 57.4l-5 13-0.6 208.4c-0.4 182.4-0.2 210.2 2.6 221.8 8.8 38.2 41.2 70.6 79.6 80 8.2 2 73.6 2.4 300.4 2.6 252 0.2 291.6-0.2 302.8-2.8z" />
<glyph unicode="&#xe907;" glyph-name="skip-2" d="M210.784 765.152c-14.272-7.872-20.736-21.376-17.568-36.768 1.6-7.936 5.728-12.256 137.6-144.288l135.936-136.096-135.936-136.096c-132.96-133.152-135.968-136.288-137.664-144.48-0.735-2.897-1.156-6.224-1.156-9.648 0-0.208 0.002-0.416 0.005-0.623v0.031c0.32-1.024 1.024-3.968 1.6-6.528 1.12-5.216 9.76-15.776 15.232-18.72 6.464-3.456 14.496-4.416 22.784-2.72 7.936 1.6 12.256 5.728 144.288 137.6l136.096 135.936 136.096-135.936c132.032-131.872 136.352-136 144.288-137.6 8.288-1.696 16.32-0.736 22.784 2.72 5.472 2.944 14.112 13.504 15.232 18.72 0.576 2.56 1.28 5.504 1.6 6.528 0.003 0.176 0.004 0.384 0.004 0.592 0 3.425-0.422 6.751-1.216 9.93l0.059-0.281c-1.696 8.192-4.704 11.328-137.664 144.48l-135.936 136.096 135.936 136.096c132.96 133.152 135.968 136.288 137.664 144.48 0.928 4.608 1.44 9.216 1.152 10.24-0.398 1.289-0.951 3.482-1.444 5.697l-0.156 0.831c-1.248 5.696-10.016 15.968-16.48 19.328-5.6 2.88-19.712 3.264-26.624 0.672-2.656-0.992-64.448-61.408-140.032-136.928l-135.264-135.168-134.4 134.24c-73.92 73.824-136.864 135.424-139.872 136.928-6.24 3.104-21.888 3.552-26.944 0.736z" />
<glyph unicode="&#xe908;" glyph-name="book" d="M295.2 957.8c-65-9-106.2-42.8-120.6-98.8-3.2-12.8-3.6-25.4-3.6-137 0-135.4-0.2-132.2 13-165.2 17-42.8 52.8-78 95.8-94.2 20.8-7.8 178-52 193.6-54.4 20.2-3.2 61-2.8 80.8 0.8 20.4 3.4 170.8 46.2 192.2 54.4 41 16 77 51.8 93.6 93.2 13.2 33.2 13 29.8 13 165.4 0 111.6-0.4 124.2-3.6 137-9.6 37.4-33 67-65.4 82.6-21.2 10.2-34.8 13.8-63.4 16.6-28.2 3-68.6 0-85.4-6.2-26-9.8-53.6-35-66-60.4-14.8-29.8-14-16.6-14.6-216-0.6-157.2-1.2-179.4-3.8-180.4-9.2-3.6-39.8-5.4-56.8-3.4-9.8 1.2-19.2 2.8-20.8 3.4-2.6 1-3.2 23.2-3.8 180.4-0.6 199.4 0.2 186-14.6 216.4-14.8 30-50.6 58.4-80.8 64-16 3-62.8 4-78.8 1.8zM66.6 771.4c-30.2-29-49.2-61-60.2-101l-5.4-19.4v-364l5.4-19.4c24.2-87.6 95.8-149.6 184.2-159.4 11.8-1.4 70.2-2.2 149.4-2.2h130v-84h-65.2c-41.2 0-68.2-0.8-73.8-2.2-5.4-1.4-12.6-5.6-18-10.2-22.4-19.6-17.6-55 9.2-68.4l10.6-5.2h358.4l10.6 5.2c25.4 12.8 31 43.8 11.8 65.6-12.6 14.6-16.8 15.2-94 15.2h-65.6v84h130c79.2 0 137.6 0.8 149.4 2.2 88.4 9.8 160 71.8 184.2 159.4l5.4 19.4v364l-5.4 19.4c-11 40-30 72-60.2 101l-18.4 17.6-1.2-104c-1-97.2-1.4-105-5.4-120-23-88-81-154.2-160.6-183.2-26.2-9.6-180.8-53-202.8-57-27.8-5-86.2-5-113.8 0-21 3.8-184.2 49.8-206.4 58.2-40.8 15.4-80.2 44.6-107.8 80-23.6 30.2-39 61.8-49.4 102-4 15-4.4 22.8-5.4 120l-1.2 104-18.4-17.6z" />
<glyph unicode="&#xe909;" glyph-name="hat" d="M473.4 914.8c-19.2-3.4-41.8-10.8-58.2-19-6.6-3.4-80.2-38.6-163.2-78.2s-158.8-76-168.2-80.8c-53.4-27.6-87.2-87.6-83.2-147.8 3.4-49 28.4-93.6 67.8-120.6 5-3.4 76.4-38.4 158.4-77.4 82.2-39 160.2-76.4 173.4-83.2 52.8-26.4 96.4-34.4 145.8-26.8 28 4.2 37.2 7.4 78 27 20.4 9.8 99.2 47.6 175 83.8l138 65.8 1-181.2 1-181.4 5.6-9.4c6.4-10.8 19-19.4 31.4-21 19.4-2.6 40.6 11.2 45.6 29.4 2 7 2.4 67.8 2 269-0.6 246.2-0.8 260.6-4.4 273-13 46-42 81.6-83 102.8-9.4 4.8-83.4 40.4-164.2 78.8-80.8 38.6-153.2 73.4-161 77.2-39.2 20.2-93.2 28-137.6 20zM170 262.6c0-32.8 1-67.2 2-76.6 8.2-72 50.8-134.2 114-166.8 56.4-29 171-45.6 269.8-39.2 62.6 4 131 17 166.4 31.8 64.8 27 111.4 84 127.2 155.2 3.6 16.6 6.4 155 3.2 155-2 0-133.8-62.6-193.6-92-48.2-23.6-75-31.6-120.6-36-55.8-5.2-114.6 6.6-169.4 34.4-20.8 10.4-59 28.8-170.6 81.8-13.6 6.6-25.6 11.8-26.6 11.8s-1.8-25-1.8-59.4z" />
<glyph unicode="&#xe90a;" glyph-name="hand" d="M340 956.4c-19.4-5.4-37.2-15.8-51-29.6-40-40-43.6-99.6-9.6-162.8 23.4-43.8 68-97.4 119.2-143.8 43.4-39.2 55.4-46 76.4-43.8 14 1.6 24.8 8.2 52.2 32.2 76 66.8 131.2 138.8 148.8 194.4 5.6 17.6 7.6 52.4 4 68.8-9 41.6-42.6 75.4-85.2 85.4-52.2 12.2-111.4-29.6-123-86.8l-2.6-12.6-2.8 13.4c-5.4 27.2-25.2 56-48.8 71-23.8 15.4-54 20.8-77.6 14.2zM884.2 614.8c-5.8-1.6-17-6.2-24.4-10-15.2-8-27.6-20.2-126.6-125l-51.8-54.8-0.2-29c-0.2-33.2-3.2-47.2-15.2-73.4-17-36.6-42.4-64.4-76.4-83.4-26.4-14.6-41-18-149.4-33.2-60.8-8.6-103.2-13.6-107-13-18.6 4-32.6 19.8-34.6 39.4-1.8 19 12.2 38.6 31.2 43.4 4 1 47.2 7.4 96.2 14.2s94 13.6 100 15.4c46.6 12.8 77.2 58.4 70 104.2-2.6 15.8-11.4 35.8-21 47.6-9.4 11.4-28.6 24-44.4 28.8-12.6 3.8-18.4 4-196.6 4-199.8 0-196.8 0.2-225.6-11.4-56.6-22.4-96.8-72.8-106.4-132.6-2.8-17.6-2.6-248.8 0.2-266 5.8-36.8 20.6-64.8 48.8-93s56.2-43 93-48.8c17-2.8 220.8-2.8 248.2-0.2 95.2 9.6 183.2 49 250.6 112.2 12.4 11.6 295.6 319 348.2 378 20 22.4 30.4 45.4 32.2 71.6 3.8 52.2-32 102-82.4 115-15.2 4-42.2 4-56.6 0z" />
<glyph unicode="&#xe90b;" glyph-name="hands" d="M485 954.4c-5.6-2.2-13.6-6-18-9-4.4-2.8-31.2-28.2-59.4-56.8-55.8-56-59.4-61-64-86.6-2.8-16.4 0.2-34.6 8.6-52 5.6-11.2 13.4-20 57.6-64 55.6-55.6 61.4-60 86.4-65.2 11.6-2.4 17.2-2.6 28.4-0.8 26.8 4.2 31.2 7.2 89.8 65.8 48.2 48.2 54 54.6 60 67.2 6.2 13.2 6.6 15.2 6.6 36s-0.4 22.8-6.6 36c-6 12.4-12 19.4-58 65.6-46.4 46.6-52.8 52.4-66.2 59-13.8 6.8-16.4 7.4-35 7.8-15.8 0.6-22.4-0.2-30.2-3zM87 832c-42.4-8.6-77.2-43.4-84.8-85-3-15.8-3-480.4-0.2-506 8.4-72.6 37.8-138.2 86.6-193 24.4-27.4 97.4-97 107-101.8 20.2-10.2 19-10.2 199.6-10.2h168.4l10.6 5.6c7.8 4 12.4 8.2 16.8 15.4l6 9.6v101.2c0 89.8-0.4 103.2-3.6 119.2-8.2 40.2-25 78.2-48.4 109.4-14.8 19.6-128.2 128-145.2 138.8-15.4 9.8-30.2 13.8-50.8 13.6-71.8-0.8-115-75-81-138.6 3.4-6.2 24.4-34.8 47-63.6 22.4-28.8 42.6-56 45-60.4 10.2-20.2 0.4-46.4-21-56.4-11.8-5.4-24.6-4.8-36.8 1.8-9 4.8-15.8 12.4-54.4 62.4-49.4 63.8-58.6 78-67.4 104.6-18.6 56-9.2 117.4 24.6 162.4l9.2 12-1.2 268-5.6 16c-6.4 18.4-20 39.8-32.6 50.8-23.2 20.4-58.2 30-87.8 24.2zM897 831.8c-13.8-2.8-36.2-14-47.4-23.8-12.8-11-26.2-31.8-33-51l-5.6-16-1.2-268 8.8-11.8c38.6-51.2 45.2-121 17.4-182.4-10.2-22.6-21.2-35.4-87.8-101.8l-66.2-66v-74c0-57.6-0.8-76.6-3-86-1.6-6.6-2.8-12.6-3-13.4 0-1 27.6-1.6 61.6-1.6 66.8 0 73.4 0.8 92.6 11.2 13.6 7.4 106.2 99 123.2 121.8 39.2 52.8 61.6 108.6 68.4 171.4 3 27.4 3 493.4 0 508-5.4 25.6-24.4 54-46 67.8-22 14-54.4 20.6-78.8 15.6zM655 447.8c-18.6-3.8-33-12.4-57.4-35l-23.6-21.4 17-17.8c34.8-36.4 66.6-94.4 79-143.2l2.2-8.6 36.4 35.4c37.8 36.6 48.8 50.8 54.6 69.8 18.2 60-22 118.2-84.2 122-7.6 0.4-18.4-0.2-24-1.2z" />
<glyph unicode="&#xe90c;" glyph-name="fill-heart" d="M1023 625c0-26.666 0-53.334 0-80-9.356-58.77-29.022-114.104-59-166-37.844-64.998-82.512-124.998-134-180-59.944-63.954-123.61-123.62-191-179-65.364-44.752-135.364-53.418-210-26-16.306 7.148-31.64 15.814-46 26-97.74 78.406-185.407 166.74-263 265-41.514 53.658-74.848 112.324-100 176-9.575 27.634-16.575 55.634-21 84 0 26.666 0 53.334 0 80 23.13 131.17 99.13 214.171 228 249 122.594 16.364 217.26-27.303 284-131 64.024 100.009 155.358 144.343 274 133 134.576-31.569 213.91-115.236 238-251z" />
<glyph unicode="&#xe90d;" glyph-name="heart" d="M1023 621c-2.822 13.758-5.822 27.758-9 42-37.366 115.366-115.032 187.033-233 215-110.984 14.692-200.984-21.641-270-109-10.294 12.629-20.96 24.962-32 37-82.444 73.424-176.444 93.424-282 60-112.389-45.366-178.389-127.7-198-247 0-27.334 0-54.666 0-82 6.939-45.834 20.606-89.834 41-132 40.168-77.688 90.168-148.354 150-212 57.946-61.956 119.612-119.622 185-173 89.52-59.23 179.52-59.898 270-2 66.722 54.712 129.722 113.712 189 177 47.386 52.040 89.386 108.040 126 168 31.544 52.99 52.544 109.658 63 170 0 29.334 0 58.666 0 88zM277 753c91.172-6.84 146.84-54.84 167-144 1.998-17.948 3.33-35.948 4-54 15.164-39.42 43.498-54.42 85-45 20.7 8.696 34.366 23.696 41 45-4.404 73.632 23.262 131.298 83 173 62.988 36.508 122.322 31.176 178-16 56.92-56.684 73.252-123.684 49-201-10.906-33.144-25.572-64.476-44-94-32.748-51.434-70.082-99.434-112-144-50.524-51.2-102.858-100.2-157-147-40-28-80-28-120 0-72.2 60.198-139.2 125.864-201 197-37.502 44.876-69.502 93.544-96 146-23.619 47.702-30.952 97.702-22 150 20.567 74.906 68.9 119.574 145 134z" />
<glyph unicode="&#xe90e;" glyph-name="inst" d="M823.314 671.769c0-7.325-1.446-14.578-4.247-21.345s-6.915-12.916-12.089-18.096c-5.18-5.18-11.33-9.288-18.101-12.091-6.764-2.803-14.017-4.246-21.341-4.246s-14.577 1.443-21.347 4.246c-6.764 2.803-12.914 6.911-18.095 12.091s-9.288 11.328-12.089 18.096c-2.807 6.767-4.247 14.020-4.247 21.345 0 14.793 5.873 28.98 16.336 39.441s24.648 16.337 39.442 16.337c14.794 0 28.979-5.877 39.442-16.337 10.457-10.46 16.336-24.648 16.336-39.441zM1000.406 419.985v-0.723l-3.192-202.15c-0.813-72.903-30.136-142.595-81.685-194.15-51.543-51.561-121.23-80.896-194.132-81.727l-203.596-3.132-202.15 3.192c-72.905 0.813-142.594 30.136-194.154 81.679-51.56 51.549-80.894 121.236-81.724 194.138l-3.132 202.873v0.723l3.192 202.15c0.814 72.905 30.132 142.594 81.681 194.154s121.232 80.894 194.137 81.724l203.595 3.132 202.151-3.193c72.903-0.814 142.595-30.132 194.15-81.681 51.561-51.549 80.896-121.232 81.727-194.137l3.132-202.872zM910.655 419.985l-3.132 201.487c-0.566 49.557-20.504 96.925-55.543 131.969-35.045 35.044-82.414 54.98-131.97 55.544l-201.488 3.132-201.487-3.132c-49.557-0.563-96.925-20.5-131.969-55.544s-54.98-82.412-55.544-131.969l-3.132-201.487 3.132-201.488c0.563-49.556 20.5-96.925 55.544-131.97s82.412-54.977 131.969-55.543l201.487-3.132 201.488 3.132c49.556 0.566 96.925 20.498 131.97 55.543 35.039 35.045 54.977 82.414 55.543 131.97l3.132 201.488zM765.97 419.985c0-65.627-26.070-128.567-72.475-174.972s-109.346-72.475-174.973-72.475c-65.627 0-128.566 26.070-174.971 72.475s-72.475 109.345-72.475 174.972c0 65.627 26.070 128.566 72.475 174.971s109.345 72.475 174.971 72.475c65.627 0 128.567-26.070 174.973-72.475s72.475-109.345 72.475-174.971zM676.219 419.985c0 41.824-16.613 81.934-46.188 111.508s-69.686 46.188-111.509 46.188c-41.824 0-81.934-16.614-111.508-46.188s-46.188-69.684-46.188-111.508c0-41.823 16.614-81.933 46.188-111.508s69.684-46.188 111.508-46.188c41.823 0 81.934 16.613 111.509 46.188s46.188 69.685 46.188 111.508z" />
<glyph unicode="&#xe90f;" glyph-name="question" d="M181 961c-100.904-21.571-161.571-82.904-182-184 0-199.334 0-398.666 0-598 4.132-13.598 10.465-26.264 19-38 36.658-37.828 78.325-44.16 125-19 56 37.334 112 74.666 168 112 88.666 0.666 177.334 1.334 266 2 21.408 2.518 42.074 7.852 62 16 71.060 33.738 113.394 89.406 127 167 1.334 119.334 1.334 238.666 0 358-19.788 101.453-80.122 162.786-181 184-134.666 0-269.334 0-404 0zM365 789c75.114 2.645 122.782-32.022 143-104 6.372-49.562-9.294-90.562-47-123-12.18-6.92-23.846-14.588-35-23-4.072-36.102-23.738-50.436-59-43-20.084 10.21-28.418 26.544-25 49 3.794 27.14 16.794 48.808 39 65 13.198 7.096 25.53 15.428 37 25 16.348 30.3 9.348 53.3-21 69-38.118 4.558-57.784-12.442-59-51-11.494-28.914-31.828-37.914-61-27-9.462 5.912-15.796 14.246-19 25-3.296 52.41 17.038 92.742 61 121 14.76 7.912 30.094 13.579 46 17zM371 447c30.984 3.342 48.984-10.324 54-41-4.592-29.928-21.926-43.26-52-40-22.132 7.938-32.464 23.606-31 47 4.376 16.028 14.042 27.362 29 34zM1023 607c0-199.334 0-398.666 0-598-6.858-24.706-20.858-44.372-42-59-9.734-5.548-19.734-9.882-30-13-13.334 0-26.666 0-40 0-10.022 3.696-20.022 8.028-30 13-56.666 38-113.334 76-170 114-94.064 0.060-188.064 1.392-282 4-46.768 9.042-86.1 31.042-118 66 6.98 5.822 14.312 11.156 22 16 79.334 0.666 158.666 1.334 238 2 118.066 11.83 203.066 70.83 255 177 10.438 24.416 17.772 49.748 22 76 2.264 64.286 3.264 128.62 3 193-0.054 63.026-0.72 126.026-2 189 81.456-17.796 136.456-65.796 165-144 3.064-12.258 6.064-24.258 9-36z" />
<glyph unicode="&#xe910;" glyph-name="cart" d="M17.328 954.874c-3.892-2.82-9.382-8.31-12.202-12.202-4.858-6.708-5.126-7.942-5.126-23.632 0-15.532 0.302-16.966 4.888-23.21 11.416-15.542 22.766-21.25 43.994-22.124 8.43-0.346 16.638-1.712 20.066-3.34 8.31-3.942 17.562-13.8 20.612-21.958 1.578-4.224 14.824-110.444 33.258-266.71 19.312-163.718 31.962-264.95 34.232-273.92 7.452-29.462 29.512-68.106 52.782-92.466 30.3-31.72 65.298-50.652 113.26-61.274l17.388-3.852h481.28l8.066 3.974c13.592 6.694 20.808 17.68 22.808 34.728 1.494 12.746-1.572 22.43-9.998 31.57-14.114 15.312 11.4 13.742-259.102 15.934l-239.64 1.942-14.508 4.302c-7.978 2.366-19.712 7.022-26.074 10.348-12.726 6.654-31.918 23.452-41.070 35.948-6.5 8.872-17.246 29.166-16.070 30.342 0.412 0.412 123.176 1.38 272.808 2.154l272.060 1.404 17.066 4.51c34.96 9.24 74.070 32.954 100.252 60.784 29.698 31.57 47.132 67.966 56.674 118.312 20.030 105.692 32.074 176.48 32.894 193.314 1.124 23.098-2.568 39.6-14.278 63.808-6.47 13.378-10.21 18.506-22.53 30.892-16.452 16.542-30.146 25.104-52.154 32.608l-13.818 4.71-714.036 1.084-1.084 8.532c-2.296 18.056-8.040 38.122-14.9 52.054-5.638 11.45-10.212 17.6-21.708 29.186-15.95 16.074-28.678 24.114-51.164 32.322-13.162 4.802-15.18 5.052-40.848 5.052h-27l-7.078-5.126zM275.098 104.918c-16.892-4.426-27.536-10.56-38.782-22.35-13.744-14.41-24.708-39.79-24.61-56.968 0.070-12.038 4.512-32.376 9.27-42.434 7.438-15.722 20.872-28.802 38.788-37.772l15.356-7.688h45.338l14.064 7.040c24.19 12.108 41.108 33.080 46.106 57.158 1.082 5.214 1.708 17.286 1.39 26.828-0.542 16.24-1.010 18.214-7.346 30.906-12.062 24.168-31.97 40.114-57.642 46.166-14.192 3.346-26.79 3.080-41.932-0.886zM704.384 105.702c-25.578-6.198-45.014-21.892-56.84-45.894l-6.69-13.58v-48.202l7.28-14.686c8.816-17.788 20.31-28.888 40.276-38.902l13.426-6.732h45.012l13.562 6.562c31.902 15.43 48.426 41.828 49.028 78.328 0.294 17.772-3.932 32.242-13.932 47.716-18.976 29.358-56.256 43.836-91.122 35.39z" />
<glyph unicode="&#xe911;" glyph-name="ruble" d="M417 961c-120.056-23.73-188.39-96.397-205-218-1-97.998-1.334-195.998-1-294-26.675 0.334-53.342 0-80-1-31.068-9.414-46.401-30.414-46-63-0.401-32.586 14.932-53.586 46-63 26.658-1 53.325-1.334 80-1 0-28 0-56 0-84-24.009 0.334-48.009 0-72-1-35.637-6.912-53.637-28.578-54-65 0.223-34.136 16.89-55.136 50-63 25.325-1 50.658-1.334 76-1-0.884-42.090 0.116-84.090 3-126 8.572-23.584 24.906-38.252 49-44 8.666 0 17.334 0 26 0 23.414 5.746 39.746 19.746 49 42 2.91 42.56 3.91 85.226 3 128 96.668-0.334 193.336 0 290 1 33.11 7.864 49.778 28.864 50 63-0.362 36.422-18.362 58.088-54 65-95.332 1-190.664 1.334-286 1 0 28 0 56 0 84 101.336-0.334 202.668 0 304 1 94.382 8.344 170.716 49.344 229 123 67.438 101.31 80.104 209.31 38 324-52.324 114.613-141.324 178.613-267 192-76 0-152 0-228 0zM447 833c65.376 0.814 130.71-0.186 196-3 103.42-20.435 158.086-83.434 164-189-3.544-91.526-48.212-152.526-134-183-17.71-4.618-35.71-7.284-54-8-92.664-1-185.33-1.334-278-1-0.334 96.002 0 192.002 1 288 5.76 41.068 27.428 70.068 65 87 13.19 4.951 26.524 7.951 40 9z" />
<glyph unicode="&#xe912;" glyph-name="search-2" d="M405 961c-44.524-5.252-87.858-16.252-130-33-160.823-73.277-252.823-197.61-276-373 0-28 0-56 0-84 22.352-173.086 112.352-296.754 270-371 157.902-61.344 306.568-44.344 446 51 66.306-65.306 132.306-130.972 198-197 8.956-7.804 18.956-13.47 30-17 10.666 0 21.334 0 32 0 24.666 7.334 40.666 23.334 48 48 0 10.666 0 21.334 0 32-4.088 11.81-10.422 22.478-19 32-65.36 65.028-130.36 130.36-195 196 11.5 16.996 22.5 34.328 33 52 72.5 142.332 73.166 285 2 428-79.046 137.318-197.378 215.984-355 236-28 0-56 0-84 0zM425 829c114.892 4.040 207.892-38.626 279-128 66.758-95.536 80.092-198.204 40-308-53.434-118.716-145.1-185.050-275-199-130.332-3.018-229.332 50.648-297 161-55.209 105.67-54.542 211.002 2 316 57.804 93.42 141.472 146.086 251 158z" />
<glyph unicode="&#xe913;" glyph-name="stars" d="M849.55 955.012c-4.52-2.866-9.738-8.186-12.272-12.508-3.69-6.296-11.442-33.462-19.094-66.902l-1.544-6.746-15.614-3.058c-8.588-1.682-25.1-5.754-36.694-9.048-18.764-5.332-21.706-6.692-26.786-12.384-18.2-20.388-18.544-41.040-1.022-61.51 5.28-6.17 8.168-7.73 22.604-12.216 9.104-2.828 25.79-7.53 37.080-10.448l20.528-5.306 8.146-33.842c8.69-36.096 11.704-42.686 23.642-51.68 6.738-5.078 22.89-8.736 31.868-7.22 8.792 1.486 23.038 9.912 28.16 16.656 4.114 5.418 15.382 42.636 19.976 65.98l2.018 10.264 9.608 1.902c18.956 3.752 55.216 13.74 61.364 16.904 3.448 1.772 8.262 5.406 10.7 8.074 9.276 10.152 10.076 12.436 10.076 28.83 0 14.42-0.37 16.1-5.134 23.29-7.63 11.52-15.96 16.348-39.59 22.946-11.54 3.222-26.778 7.76-33.86 10.084l-12.878 4.228-8.212 31.122c-9.012 34.156-10.798 38.652-18.704 47.054-8.494 9.028-12.828 10.522-30.538 10.522-14.71 0-16.58-0.392-23.828-4.988zM408.264 917.226c-13.854-2.73-29.538-11.92-42.002-24.608l-11.764-11.978-18.542-52.906c-10.2-29.1-28.256-81.708-40.128-116.908s-22.426-64.852-23.452-65.896c-1.028-1.044-27.982-9.774-59.896-19.4-112.366-33.896-162.212-49.808-169.814-54.212-13.876-8.042-28.498-23.726-35.896-38.508l-6.77-13.526v-24.17c0-24.084 0.022-24.214 5.938-36.56 6.778-14.142 19.71-28.82 32.858-37.292 6.334-4.082 36.104-14.966 102.4-37.436 745.811-226.766 783.074-239.716 820.327-252.687l-708.157 214.619c16.512-5.638 18.942-6.978 20.764-11.44 1.134-2.782 17.102-51.876 35.482-109.1s35.918-108.956 38.97-114.958c16.536-32.512 52.696-50.388 90.76-44.868 19.954 2.892 33.018 9.816 49.080 26.010l13.116 13.224 38.938 117.406c36.108 108.876 39.248 117.496 43.204 118.626 2.346 0.67 53.418 17.376 113.494 37.124 79.098 26 111.468 37.39 117.352 41.288 34.592 22.918 47.048 72.92 27.846 111.772-6.972 14.108-23.53 30.986-38.094 38.83-4.866 2.622-49.004 17.756-98.082 33.63-49.080 15.876-98.056 31.844-108.834 35.484l-19.6 6.618-12.484 40.818c73.662-279.088 62.431-243.011 51.246-206.915l-84.106 315.147c-11.206 37.076-22.818 72.242-25.804 78.144-10.426 20.606-36.844 40.54-59.274 44.726-10.722 2.002-28.65 1.956-39.076-0.098zM817.442 319.18c-4.254-1.364-10.856-5.15-14.67-8.416-7.476-6.398-15.35-22.746-37.422-77.692l-10.582-26.34-48.36-19.148c-44.762-17.724-48.892-19.714-55.526-26.732-15.126-16.010-14.822-43.010 0.678-60.52 4.458-5.036 28.25-16.136 84.866-39.59l17.068-7.070 4.834-11.476c2.658-6.312 11.378-27.604 19.378-47.316 15.426-38.010 18.986-44.206 29.98-52.17 6.514-4.72 7.85-5.004 23.564-5.004h16.656l8.55 6.758c4.702 3.718 9.89 9.026 11.526 11.796 1.636 2.772 11.106 25.262 21.044 49.978l18.068 44.94 49.492 21.358c27.222 11.748 50.378 21.926 51.46 22.622 1.080 0.694 4.728 5.426 8.106 10.514 5.786 8.72 6.142 10.052 6.142 23.112 0 10.456-0.832 15.49-3.388 20.5-6.37 12.484-13.82 16.818-63.246 36.796l-46.578 18.826-7.554 17.868c-23.612 55.86-35.398 81.556-39.414 85.928-9.524 10.37-30.014 15.176-44.672 10.478z" />
<glyph unicode="&#xe914;" glyph-name="trash" d="M399.378 956.362c-57.292-15.376-104.32-54.988-128.148-107.936l-5.688-12.64-11.17-1.002c-6.144-0.55-55.716-1.474-110.158-2.054l-98.988-1.054-10.45-4.766c-13.608-6.21-22.752-14.642-29.402-27.118-5.166-9.692-5.374-10.874-5.374-30.478 0-19.302 0.278-20.952 5.182-30.766 5.92-11.848 14.614-20.408 27.61-27.188 8.314-4.336 10.856-4.754 32.408-5.34l23.386-0.638 0.948-7.090c0.52-3.9 4.806-55.476 9.522-114.612 15.42-193.336 35.726-434.926 37.656-448 6.064-41.090 31.388-92.412 62.098-125.844 28.416-30.934 72.726-56.212 118.69-67.708l17.98-4.498 359.986 0.942 18.774 5.646c40.248 12.102 74.236 32.464 104.272 62.466 10.416 10.404 22.794 24.682 27.506 31.73 22.374 33.46 36.592 73.382 41.324 116.040 1.798 16.214 24.478 289.434 38.18 459.946l7.27 90.454 22.99 0.852c21.026 0.782 23.858 1.28 33.138 5.836 12.586 6.18 22.728 16.14 28.758 28.24 4.222 8.472 4.616 10.958 4.616 29.134 0 18.718-0.302 20.474-5.182 30.242-6.296 12.598-15.692 21.408-29.594 27.752l-10.452 4.766-98.986 1.054c-54.442 0.58-104.040 1.506-110.216 2.060l-11.232 1.008-7.796 15.594c-25.938 51.876-69.63 88.37-124.814 104.254l-15.124 4.354-98.368-0.104c-92.974-0.098-99.072-0.292-111.152-3.534zM802.586 704.426c1.548-3.030-44.642-543.9-47.416-555.218-8.244-33.638-29.454-59.46-60.556-73.718-21.272-9.752-24.496-9.926-184.32-9.96-163.804-0.036-161.316-0.198-187.128 12.198-29.36 14.1-51.102 42.808-57.8 76.318-1.676 8.388-46.604 548.904-45.748 550.38 0.972 1.674 582.112 1.674 582.968 0zM379.512 572.708c-20.558-10.42-32.758-24.436-37.548-43.136-2.764-10.784-2.458-18.92 1.378-36.706 2.222-10.302 13.388-23.952 52.382-64.042l23.038-23.684-34.382-34.462c-41.402-41.5-43.672-45.188-43.812-71.194-0.082-15.064 0.328-17.094 5.614-27.832 6.912-14.040 13.36-20.75 26.844-27.928 18.162-9.672 39.318-10.408 58.848-2.052 7.414 3.172 16.396 10.81 44.286 37.648l34.986 33.668 33.28-32.948c36.2-35.84 42.522-40.212 62.868-43.49 13.688-2.204 28.386 0.162 41.204 6.632 13.302 6.714 19.93 13.794 27.166 29.014 5.398 11.354 6.098 14.378 6.122 26.47 0.020 10.3-0.988 16.378-4.102 24.748-3.85 10.334-6.532 13.518-39.286 46.604l-35.154 35.51 20.978 21.346c34.474 35.078 51.186 54.754 54.032 63.61 8.182 25.466 3.298 47.87-14.754 67.676-12.228 13.418-21.558 16.948-44.834 16.97-27.424 0.024-30.87-1.634-58.026-27.936-12.202-11.82-28.37-27.476-35.928-34.794l-13.74-13.304-35.834 34.788c-40.968 39.77-44.334 41.832-70.658 43.312-13.652 0.766-15.122 0.502-24.968-4.488z" />
<glyph unicode="&#xe915;" glyph-name="users" d="M454.826 955.82c-38.608-9.208-78.856-29.342-110.76-55.412-41.944-34.274-71.636-85.736-84.716-146.82-3.356-15.68-3.654-20.942-2.884-51.028 0.528-20.668 1.964-39.444 3.738-48.906 6.136-32.698 19.458-65.674 37.578-93.014 12.794-19.304 45.878-51.57 67.866-66.186 48.816-32.448 90.62-45.324 147.206-45.336 41.568-0.010 72.792 6.986 109.226 24.474 61.874 29.696 110.274 84.28 132.168 149.050 9.68 28.636 11.188 39.496 11.178 80.504-0.012 51.562-3.89 70.676-22.238 109.592-34.488 73.142-90.022 119.598-169.172 141.518-15.894 4.402-19.062 4.676-59.456 5.142-40.006 0.462-43.73 0.238-59.734-3.578zM309.33 361.764c-54.43-10.042-92.738-29.34-124.372-62.656-25.030-26.358-41.362-57.454-52.668-100.282l-4.282-16.212-0.008-244.908h766.294l-0.032 243.2-4.132 16.214c-11.49 45.080-29.394 78.342-57.072 106.018-28.24 28.242-61.724 45.476-111.138 57.206-11.836 2.81-27.396 3.064-206.506 3.37-155.558 0.266-196.144-0.118-206.084-1.95z" />
<glyph unicode="&#xe916;" glyph-name="menu" horiz-adv-x="1378" d="M0 881.231c0 43.503 35.266 78.769 78.769 78.769h1220.923c43.504 0 78.769-35.266 78.769-78.769v0c0-43.503-35.265-78.769-78.769-78.769h-1220.923c-43.503 0-78.769 35.266-78.769 78.769v0zM0 448c0 43.504 35.266 78.769 78.769 78.769h1220.923c43.504 0 78.769-35.265 78.769-78.769v0c0-43.504-35.265-78.769-78.769-78.769h-1220.923c-43.503 0-78.769 35.265-78.769 78.769v0zM0 14.769c0 43.504 35.266 78.769 78.769 78.769h1220.923c43.504 0 78.769-35.265 78.769-78.769v0c0-43.504-35.265-78.769-78.769-78.769h-1220.923c-43.503 0-78.769 35.265-78.769 78.769v0z" />
<glyph unicode="&#xe917;" glyph-name="search" d="M377.518 956.514c-75.904-13.48-148.876-44.932-205.144-88.422-22.318-17.248-65.412-61.32-83.208-85.094-45.666-61.010-74.836-131.686-86.622-209.878-1.702-11.29-2.526-30.37-2.53-58.56-0.004-36.22 0.566-45.466 4.266-69.12 9.984-63.82 36.596-131.662 72.976-186.026 49.466-73.922 120.908-130.048 209.412-164.516 40.392-15.73 60.188-20.836 104.158-26.87 29.452-4.042 88.908-4.030 116.908 0.026 69.682 10.090 129.916 33.228 191.192 73.442l17.020 11.17 102.4-102.278c118.826-118.682 111.244-112.678 142.268-112.68 16.582-0.002 18.312 0.334 27.82 5.402 13.208 7.040 21.47 15.254 28.312 28.144 5.302 9.986 5.548 11.294 5.548 29.46 0 31.202 6.16 23.39-112.016 142.036l-101.388 101.788 14.648 22.798c17.242 26.834 31.19 54.904 43.13 86.798 39.874 106.508 39.058 218.54-2.354 323.69-10.146 25.766-29.38 64.214-39.916 79.794-73.776 109.104-179.44 177.148-308.772 198.84-29.058 4.874-110.794 4.906-138.108 0.056zM484.18 825.948c100.288-13.142 176.136-60.116 230.346-142.652 21.35-32.504 30.932-53.726 39.966-88.512 18.222-70.158 15.040-134.914-9.704-197.474-23.45-59.292-61.264-108.366-111.208-144.326-66.44-47.838-145.128-66.962-229.954-55.888-44.51 5.812-101.218 29.072-141.654 58.106-54.428 39.078-90.894 90.332-114.962 161.578-11.308 33.47-13.010 45.994-12.954 95.22 0.044 39.694 0.366 44.16 4.62 64.1 14.738 69.094 50.034 128.472 105.18 176.94 41.738 36.682 104.786 65.094 163.506 73.68 16.528 2.418 55.466 2.026 76.818-0.772zM325.632 659.042c-20.448-7.414-32.826-15.53-44.11-28.926-12.048-14.302-22.674-34.42-25.586-48.448-3.010-14.498-1.258-44.658 3.454-59.428 4.198-13.168 17.58-41.17 26.072-54.558 25.162-39.672 79.134-95.416 131.964-136.294 13.298-10.292 24.296-13.006 39.562-9.766 8.706 1.848 13.368 4.432 28.528 15.814 46.85 35.178 112.882 109.108 133.81 149.818 23.496 45.7 26.602 86.292 9.256 120.904-6.49 12.948-23.962 31.112-38.726 40.26-13.984 8.666-24.73 11.208-47.366 11.208-17.956 0-30.11-2.368-41.584-8.102-24.116-12.052-37.254-27.732-51.132-61.018l-2.846-6.826-4.674 11.946c-16.060 41.044-46.644 63.286-91.534 66.566-11.756 0.858-15.242 0.42-25.088-3.15z" />
<glyph unicode="&#xe918;" glyph-name="stick" d="M313.15 954.226c-4.68-3.176-10.124-7.592-12.096-9.814-5.060-5.702-23.746-58.76-27.226-77.314l-1.14-6.074-32.664-10.406c-46.792-14.908-46.368-14.73-54.95-23.070-11.426-11.104-15.14-20.484-15.134-38.214 0.006-16.826 3.188-24.698 14.294-35.356 9.754-9.36 14.28-11.296 52.776-22.576 19.124-5.602 34.906-10.412 35.072-10.688 0.164-0.276 4.784-16.454 10.266-35.954 12.616-44.874 17.99-53.722 37.624-61.924 10.070-4.208 30.666-3.79 41.124 0.834 18.784 8.306 25.532 19.424 37.368 61.56 5.062 18.022 9.468 33.032 9.79 33.354 0.532 0.53 62.022 22.214 76.412 26.946 7.622 2.506 18.346 13.49 22.774 23.324 2.5 5.554 3.484 11.456 3.558 21.332 0.12 16.29-3.778 25.864-15.122 37.154-6.77 6.736-9.93 8.106-47.192 20.46l-39.938 13.24-7.392 25.028c-12.332 41.752-16.956 53.068-24.79 60.672-11.594 11.25-17.248 13.26-37.318 13.26-17.166 0-17.788-0.138-26.096-5.774zM851.456 956.602c-11.742-6.206-15.856-13.078-25.186-42.078-4.788-14.882-9.512-30.29-10.496-34.24l-1.788-7.184-18.3-5.874c-10.064-3.232-24.298-7.54-31.628-9.576-16.936-4.7-23.142-8.408-29.96-17.904-11.72-16.318-13.73-31.256-6.232-46.302 7.764-15.584 11.982-18.236 50.468-31.736 19.192-6.732 35.090-12.364 35.332-12.516s4.158-13.268 8.702-29.146c9.52-33.262 11.272-37.168 20.352-45.372 9.844-8.894 19.814-12.15 34.828-11.372 10.682 0.554 13.62 1.436 20.408 6.126 13.384 9.248 16.77 15.618 26.86 50.548 6.032 20.884 9.974 31.81 11.476 31.81 1.26 0 16.486 4.634 33.84 10.296 33.954 11.080 38.978 13.958 47.328 27.126 4.406 6.948 4.834 9.010 4.834 23.368 0 15.5-0.1 15.88-6.26 23.986-3.442 4.532-7.834 9.39-9.758 10.798-5.462 3.994-32.37 13.43-53.754 18.848-10.682 2.708-19.532 5.144-19.664 5.412s-2.426 9.318-5.096 20.114c-6.412 25.91-14.058 46.766-19.528 53.266-2.438 2.898-7.454 7.458-11.148 10.134-6.3 4.564-7.738 4.862-23.102 4.79-12.708-0.058-17.762-0.804-22.528-3.322zM611.84 699.872c-34.918-9.866-41.272-14.764-115.194-88.8l-63.996-64.092 176.492-176.49 64.184 63.928c70.014 69.736 75.216 76.076 85.088 103.704 5.062 14.168 5.302 16.032 5.31 41.292 0.010 25.868-0.112 26.754-5.504 40.106-8.51 21.070-17.212 34.664-31.18 48.716-14.404 14.486-29.064 23.068-49.522 28.986-16.554 4.788-52.918 6.256-65.678 2.65zM195.202 309.334l-177.666-177.92-17.548-35.84 0.006-36.908c0.006-36.004 0.114-37.154 4.434-46.934 13.662-30.942 40.394-56.936 71.856-69.872 9.306-3.828 11.99-4.074 44.556-4.112l34.654-0.042 12.082 5.142c6.646 2.828 17.164 8.546 23.374 12.708 7.796 5.222 65.102 61.412 185.124 181.512 152.152 152.25 173.614 174.348 172.058 177.16-2.512 4.544-171.53 173.026-173.578 173.026-0.926 0-81.636-80.064-179.352-177.92zM836.82 447.352c-9.040-2.956-17.238-8.020-22.934-14.166-3.088-3.33-8.866-17.504-18.774-46.040l-14.312-41.226-34.748-9.804c-38.622-10.898-46.484-14.92-55.914-28.604-9.89-14.352-11.664-37.458-4.024-52.432 3.97-7.784 14.488-18.318 22.488-22.524 3.102-1.632 21.284-7.55 40.408-13.154 19.124-5.602 34.906-10.412 35.072-10.688 0.164-0.276 4.784-16.454 10.266-35.954 10.502-37.358 14.874-46.854 25.192-54.724 10.086-7.694 18.198-10.214 32.94-10.238 15.976-0.026 26.54 4.374 36.886 15.362 8.396 8.918 10.572 13.534 17.552 37.266 3.314 11.264 8.23 26.996 10.924 34.958l4.902 14.476 33.134 9.54c37.476 10.79 43.89 13.658 53.856 24.086 10.99 11.496 12.56 15.906 12.56 35.274 0 16.882-0.030 17.002-6.684 26.966-3.676 5.504-8.916 11.658-11.646 13.676-4.496 3.324-52.504 19.944-71.228 24.658-4.19 1.056-8.298 2.794-9.126 3.862-0.83 1.070-7.522 19.524-14.872 41.008-12.268 35.86-13.928 39.608-20.252 45.682-3.788 3.64-10.256 8.25-14.376 10.244-9.346 4.524-27.398 5.732-37.29 2.496z" />
<glyph unicode="&#xe91a;" glyph-name="settings" d="M487 961c-73.768-21.744-109.102-71.41-106-149-44.052-16.346-84.052-39.346-120-69-17.916 11.626-37.25 19.959-58 25-67.246 8.541-115.58-17.792-145-79-21.689-77.612 3.311-134.612 75-171-10.667-46-10.667-92 0-138-39.799-17.794-66.133-47.462-79-89-13.195-63.116 7.138-112.116 61-147 50.692-23.082 99.36-19.416 146 11 35.948-29.654 75.948-52.654 120-69-3.208-78.728 32.792-128.396 108-149 14.666 0 29.334 0 44 0 75.236 20.682 111.236 70.348 108 149 44.052 16.346 84.052 39.346 120 69 18.382-12.19 38.382-20.524 60-25 72.348-7.008 121.348 23.326 147 91 13.926 73.148-12.408 126.148-79 159 10.666 46 10.666 92 0 138 32.886 14.886 57.22 38.552 73 71 22.022 60.58 9.022 112.246-39 155-54.104 36.332-108.104 35.998-162-1-35.948 29.654-75.948 52.654-120 69 3.074 77.666-32.26 127.332-106 149-16 0-32 0-48 0zM497 619c79.896 1.022 136.896-34.312 171-106 26.838-80.14 7.838-147.14-57-201-70.722-45.52-140.054-43.52-208 6-58.502 54.342-74.836 119.342-49 195 28.176 61.868 75.842 97.2 143 106z" />
<glyph unicode="&#xe91b;" glyph-name="filters" d="M1023 801c0-10.667 0-21.333 0-32-6.97-24.636-22.97-40.302-48-47-172.666-0.666-345.334-1.334-518-2-39.11-68.878-97.776-95.544-176-80-43.826 12.566-75.826 39.232-96 80-46 0.666-92 1.334-138 2-25.029 6.698-41.029 22.364-48 47 0 10.667 0 21.333 0 32 6.971 24.635 22.971 40.302 48 47 46 0.667 92 1.333 138 2 39.11 68.877 97.776 95.544 176 80 43.826-12.566 75.826-39.233 96-80 172.666-0.667 345.334-1.333 518-2 25.030-6.698 41.030-22.365 48-47zM1023 465c0-10.666 0-21.334 0-32-6.97-24.636-22.97-40.302-48-47-46-0.666-92-1.334-138-2-39.11-68.878-97.776-95.544-176-80-43.826 12.566-75.826 39.232-96 80-172.666 0.666-345.334 1.334-518 2-25.029 6.698-41.029 22.364-48 47 0 10.666 0 21.334 0 32 6.971 24.636 22.971 40.302 48 47 172.666 0.666 345.334 1.334 518 2 39.11 68.878 97.776 95.544 176 80 43.088-13.52 75.088-40.186 96-80 46-0.666 92-1.334 138-2 25.030-6.698 41.030-22.364 48-47zM1023 129c0-10.666 0-21.334 0-32-6.97-24.636-22.97-40.302-48-47-172.666-0.666-345.334-1.334-518-2-39.11-68.878-97.776-95.544-176-80-43.826 12.566-75.826 39.232-96 80-46 0.666-92 1.334-138 2-25.029 6.698-41.029 22.364-48 47 0 10.666 0 21.334 0 32 6.971 24.636 22.971 40.302 48 47 46 0.666 92 1.334 138 2 39.11 68.878 97.776 95.544 176 80 43.826-12.566 75.826-39.232 96-80 172.666-0.666 345.334-1.334 518-2 25.030-6.698 41.030-22.364 48-47z" />
<glyph unicode="&#xe922;" glyph-name="sphere" d="M467 961c-80.824-7.941-156.156-32.941-226-75-141.719-92.151-222.386-222.484-242-391 0-30.666 0-61.334 0-92 5.395-49.254 17.062-97.254 35-144 83.202-188.116 226.868-295.45 431-322 30 0 60 0 90 0 53.632 5.408 105.632 18.408 156 39 183.032 85.386 287.032 228.386 312 429 0 30 0 60 0 90-5.73 52.914-18.73 104.246-39 154-85.124 182.101-227.456 286.101-427 312-30 0-60 0-90 0zM825 665c-149.038 51.646-301.704 65.98-458 43-58.082-9.020-114.748-23.354-170-43 62.934 91.1 149.6 145.434 260 163 140.076 15.43 256.41-29.57 349-135 6.868-9.102 13.202-18.436 19-28zM457 587c105.15 6.024 207.816-6.976 308-39 38.606-13.63 73.938-32.964 106-58 27.19-24.19 28.856-49.856 5-77-25.186-22.48-53.518-40.146-85-53-72.726-28.012-148.060-44.012-226-48-105.154-7.022-207.82 5.644-308 38-41.13 14.056-78.13 35.056-111 63-21.812 22.766-22.478 46.098-2 70 37.879 33.782 81.546 57.45 131 71 59.708 17.88 120.374 28.88 182 33zM197 233c149.012-51.644 301.68-65.978 458-43 58.058 9.014 114.724 23.348 170 43-62.92-91.080-149.586-145.412-260-163-140.010-15.47-256.342 29.53-349 135-6.868 9.102-13.202 18.436-19 28z" />
<glyph unicode="&#xe923;" glyph-name="tg" d="M465 961c-70.392-7.277-137.058-27.611-200-61-155.558-90.715-244.225-225.714-266-405 0-30.666 0-61.334 0-92 7.277-70.392 27.611-137.058 61-200 90.712-155.558 225.712-244.224 405-266 30.666 0 61.334 0 92 0 70.392 7.278 137.058 27.61 200 61 155.558 90.712 244.224 225.712 266 405 0 30.666 0 61.334 0 92-7.278 70.392-27.61 137.058-61 200-90.712 155.557-225.712 244.224-405 266-30.666 0-61.334 0-92 0zM707 651c8.028 0.332 16.028-0.002 24-1 7.976-2.896 12.976-8.562 15-17 1.334-10.666 1.334-21.334 0-32-16.086-121.188-35.42-241.854-58-362-10.906-48.942-37.24-59.274-79-31-50.988 35.162-102.322 69.828-154 104-7.072 6.402-13.406 13.402-19 21-1.846 11.66 1.488 21.66 10 30 55.274 51.938 109.94 104.606 164 158 6.45 12.718 2.784 18.384-11 17-75.752-47.762-150.418-97.096-224-148-18.276-12.236-38.276-16.902-60-14-36.732 8.184-72.732 18.85-108 32-17.653 9.62-18.32 20.288-2 32 145.95 66.432 293.284 129.766 442 190 20.142 7.266 40.142 14.266 60 21z" />
<glyph unicode="&#xe926;" glyph-name="prise" d="M239 961c-26.532-5.413-51.199-15.747-74-31-72.709-62.54-88.709-137.54-48-225-64.317-18.654-103.65-60.654-118-126 0-18 0-36 0-54 6.009-41.382 21.009-79.382 45-114 37.511-48.14 85.178-82.474 143-103 76.040-24.54 154.040-34.874 234-31 1.216-7.944 2.216-15.944 3-24 1.334-54 1.334-108 0-162-7.666-37-30-59.334-67-67-38-0.666-76-1.334-114-2-14.146-4.144-23.812-13.144-29-27-6.928-26.928 2.072-46.262 27-58 180 0 360 0 540 0 14.994 6.67 24.662 18.004 29 34 2.646 25.064-7.688 42.064-31 51-38 0.666-76 1.334-114 2-36.982 7.648-59.316 29.982-67 67-1.334 54-1.334 108 0 162 0.784 8.056 1.784 16.056 3 24 33.374-0.372 66.708 0.628 100 3 67.312 4.218 130.644 22.218 190 54 73.994 43.002 117.994 106.67 132 191 0 18 0 36 0 54-14.052 64.704-53.052 106.036-117 124 6.996 18.078 12.996 36.744 18 56 1.862 11.254 2.862 22.587 3 34-7.16 91.151-55.16 147.151-144 168-181.334 0-362.666 0-544 0zM159 621c2.35 0.438 4.35-0.228 6-2 51.356-81.716 113.356-154.716 186-219 11.108-10.102 21.108-21.102 30-33-76.93-4.95-148.93 11.384-216 49-53.328 34.314-79.661 83.314-79 147 4.878 26.216 19.878 43.882 45 53 9.629 1.606 18.963 3.274 28 5zM857 621c69.16-6.23 93.494-42.896 73-110-13.048-40.376-37.38-72.042-73-95-67.064-37.616-139.064-53.948-216-49 8.892 11.898 18.892 22.898 30 33 73.51 64.464 135.51 138.132 186 221z" />
<glyph unicode="&#xe929;" glyph-name="vk" d="M311 961c-49.618-1.851-98.952-8.185-148-19-76.333-20.333-124.667-68.667-145-145-10.796-48.378-17.129-97.046-19-146 0-134.666 0-269.334 0-404 1.871-48.954 8.204-97.622 19-146 19.663-73.708 65.996-121.374 139-143 50.876-12.35 102.21-19.35 154-21 133.334 0 266.666 0 400 0 49.618 1.852 98.952 8.184 148 19 76.334 20.334 124.666 68.666 145 145 10.816 49.048 17.148 98.382 19 148 0 133.334 0 266.666 0 400-1.852 49.618-8.184 98.952-19 148-20.334 76.333-68.666 124.667-145 145-49.032 10.962-98.366 17.295-148 19-133.334 0-266.666 0-400 0zM201 641c25.342 0.334 50.676 0 76-1 14.094-0.746 23.762-7.746 29-21 22.226-68.462 54.892-131.128 98-188 7.832-9.41 17.498-16.076 29-20 3.66 0.552 6.994 1.886 10 4 3.186 7.618 4.852 15.618 5 24 1.334 38 1.334 76 0 114-1.708 24.74-11.040 46.074-28 64-2.822 13.854 2.844 21.52 17 23 38.666 1.334 77.334 1.334 116 0 15.586-0.932 22.586-9.264 21-25 0.666-54 1.334-108 2-162 1.604-6.274 5.604-9.608 12-10 6.354 0.782 12.020 3.114 17 7 26.408 25.166 48.742 53.5 67 85 16.418 30.172 31.752 60.838 46 92 7.038 8.352 16.038 12.686 27 13 25.334 1.334 50.666 1.334 76 0 12.902 0.94 20.234-4.728 22-17-0.774-9.094-3.106-17.762-7-26-27.988-54.676-59.988-106.676-96-156-7.102-11.834-6.434-23.168 2-34 37.722-35.702 71.722-74.368 102-116 4.068-8.040 8.068-16.040 12-24 4.672-14.998-0.328-24.664-15-29-33.466-1.912-66.8-1.246-100 2-2.666 1.334-5.334 2.666-8 4-26.608 28.61-53.942 56.61-82 84-10 7.334-20 14.666-30 22-12.598 7.828-25.93 9.828-40 6-2.402-1.806-4.070-4.138-5-7-0.666-28.666-1.334-57.334-2-86-0.034-9.748-4.368-16.748-13-21-40.252-8.682-79.586-5.348-118 10-49.684 21.024-92.016 52.024-127 93-49.672 62.628-89.672 131.294-120 206-7.859 19.436-13.859 39.436-18 60-3.133 18.514 4.534 28.514 23 30z" />
<glyph unicode="&#xe92a;" glyph-name="waves" d="M495 961c10.666 0 21.334 0 32 0 24.618-6.953 40.284-22.953 47-48 24.186-167.306 48.186-334.638 72-502 20.208 105.912 40.208 211.912 60 318 19.18 37.399 48.846 49.066 89 35 13-7.666 23.334-18 31-31 20.65-89.93 40.982-179.93 61-270 5.37 15.786 11.702 31.12 19 46 24.6 27.788 53.6 33.454 87 17 15.67-9.734 25.67-23.4 30-41 0-10 0-20 0-30-30.064-89.858-60.398-179.858-91-270-17.714-29.246-43.38-40.246-77-33-23.866 7.198-38.866 22.864-45 47-11.732 56.92-24.398 113.588-38 170-23.334-128-46.666-256-70-384-2.784-11.428-8.118-21.428-16-30-9.2-8.252-19.532-14.252-31-18-10.666 0-21.334 0-32 0-24.636 6.97-40.302 22.97-47 48-21.39 148.058-43.056 296.058-65 444-21.944-147.942-43.61-295.942-65-444-6.698-25.030-22.364-41.030-47-48-10.666 0-21.334 0-32 0-21.16 6.128-36.16 19.46-45 40-24.514 130.568-48.514 261.234-72 392-14.328-61.984-28.994-123.984-44-186-25.946-35.9-58.279-42.9-97-21-9.293 7.284-16.293 16.284-21 27-29.138 88.418-58.805 176.418-89 264 0 11.334 0 22.666 0 34 19.631 44.89 52.298 57.89 98 39 6.929-4.926 13.262-10.592 19-17 7.549-14.634 13.549-29.968 18-46 0.667 0.666 1.333 1.334 2 2 18.983 89.582 38.983 178.916 60 268 16.916 28.621 41.916 40.288 75 35 25-6.333 40.666-22 47-47 18.496-102.992 37.828-205.658 58-308 23.628 166.726 47.628 333.392 72 500 6.698 25.029 22.364 41.029 47 48z" />
<glyph unicode="&#xe92b;" glyph-name="in-yan" d="M-1 403c7.219-68.828 26.885-134.162 59-196 61.483-111.146 151.15-189.48 269-235-57.714 73.17-80.048 156.17-67 249 23.334 127.094 95 214.094 215 261 31.082 5.916 60.414 16.582 88 32 88.73 59.146 127.73 142.146 117 249-27.364 122.674-104.032 186.674-230 192-65.712-4.569-127.378-22.902-185-55-155.556-90.707-244.222-225.708-266-405 0-30.666 0-61.334 0-92zM435 789c36.856 2.755 61.19-13.245 73-48 4.694-45.634-15.64-71.634-61-78-45.36 6.366-65.694 32.366-61 78 8.24 24.576 24.572 40.576 49 48zM1023 495c-21.776 179.288-110.442 314.288-266 405-19.74 11.556-40.406 20.223-62 26 69.282-90.664 87.616-190.998 55-301-43.608-120.26-127.942-194.594-253-223-12.908-5.454-25.576-11.454-38-18-88.734-59.156-127.734-142.156-117-249 27.148-122.114 103.482-186.114 229-192 59.872 4.068 116.54 19.736 170 47 164.69 89.084 258.69 226.75 282 413 0 30.666 0 61.334 0 92zM567 235c49.554-2.552 72.554-28.552 69-78-11.772-35.058-36.106-50.726-73-47-37.812 11.95-54.146 37.616-49 77 8.664 26.348 26.33 42.348 53 48z" />
</font>
</defs>
</svg>
